<svg width="1212" height="677" viewBox="0 0 1212 677" fill="none" xmlns="http://www.w3.org/2000/svg">
<path d="M757.005 336.595L762.55 338.086L770.214 337.755L764.833 342.062L761.571 342.724L752.602 338.252L751.624 334.773L755.701 331.626L757.005 336.595Z" fill="#F28705" stroke="#390096" stroke-width="0.2" stroke-linecap="round" stroke-linejoin="round"/>
<path d="M780.488 310.092L776.574 310.258L767.116 307.111L761.408 302.141L764.507 301.313L774.128 303.963L780.977 308.27L780.488 310.092Z" fill="#F28705" stroke="#390096" stroke-width="0.2" stroke-linecap="round" stroke-linejoin="round"/>
<path d="M278.387 316.221L273.332 317.712L263.058 313.074V309.43L258.329 305.785L258.818 302.804L251.806 300.982L252.784 295.35L255.231 293.031L261.916 295.184L265.83 296.841L272.516 297.834L272.842 301.479L273.495 306.282L278.713 310.589L278.387 316.221Z" fill="#F28705" stroke="#390096" stroke-width="0.2" stroke-linecap="round" stroke-linejoin="round"/>
<path d="M831.367 293.859L823.213 302.804L829.573 299.325L834.302 301.644L830.388 305.123L836.585 307.939L841.151 305.454L848.163 308.601L843.597 316.221L849.794 314.399L849.305 319.865L850.12 326.325L844.249 335.601L840.336 335.933L835.606 333.945L839.683 325.497L837.726 324.172L825.822 333.117L820.93 332.785L828.105 327.816L820.93 325.331L811.961 325.994L796.306 325.663L795.98 322.681L802.177 318.871L799.404 316.221L808.21 309.927L821.582 293.528L828.431 287.73L836.585 284.252L840.009 284.583L837.563 287.399L831.367 293.859Z" fill="#F28705" stroke="#390096" stroke-width="0.2" stroke-linecap="round" stroke-linejoin="round"/>
<path d="M244.305 258.411L246.751 259.736L254.904 258.908L243.163 270.338L243.652 278.62H240.554L239.412 273.982L240.228 269.178L238.923 266.031L241.043 261.558L244.305 258.411Z" fill="#F28705" stroke="#390096" stroke-width="0.2" stroke-linecap="round" stroke-linejoin="round"/>
<path d="M706.453 179.73L700.582 184.699L697.81 183.871L697.647 181.055L698.299 180.393L702.865 177.577L705.638 177.742L706.453 179.73Z" fill="#F28705" stroke="#390096" stroke-width="0.2" stroke-linecap="round" stroke-linejoin="round"/>
<path d="M690.635 174.429L678.894 179.73L674.001 179.398V176.914L682.155 172.441L691.939 172.607L690.635 174.429Z" fill="#F28705" stroke="#390096" stroke-width="0.2" stroke-linecap="round" stroke-linejoin="round"/>
<path d="M685.58 146.601L684.112 150.742L688.515 149.252L690.961 151.736L696.669 155.049L702.865 157.865L700.582 162.337L706.29 161.675L709.388 164.822L701.235 167.804L691.613 165.485L690.309 161.178L680.035 166.313L666.663 171.117L667.805 165.65L657.531 166.479L666.826 161.841L672.697 154.387L681.014 145.939L685.58 146.601Z" fill="#F28705" stroke="#390096" stroke-width="0.2" stroke-linecap="round" stroke-linejoin="round"/>
<path d="M758.799 132.852L750.809 133.349L751.95 128.877L758.147 123.742L765.159 122.583L768.91 125.067L766.464 128.877L764.996 130.202L758.799 132.852Z" fill="#F28705" stroke="#390096" stroke-width="0.2" stroke-linecap="round" stroke-linejoin="round"/>
<path d="M637.31 115.129L630.624 118.276L623.775 115.626L617.415 116.454L611.871 112.479L620.024 109.663L628.015 105.853L632.907 108.337L635.516 109.994L636.168 111.65L637.31 115.129Z" fill="#F28705" stroke="#390096" stroke-width="0.2" stroke-linecap="round" stroke-linejoin="round"/>
<path d="M723.739 351.338L720.151 345.374L724.88 331.295L722.271 328.313L716.237 329.97L714.443 327.319L705.474 335.105L700.256 343.221L695.69 348.025L691.613 349.681L688.841 350.178L687.047 352.663H671.881L659.162 352.828L654.759 354.651L643.67 361.939V361.773L642.202 361.111L638.941 362.601L635.842 364.755L632.907 362.933L625.243 364.258L618.883 365.749L615.784 367.074L612.034 370.552L614.969 371.712L617.741 371.049H618.23L617.741 374.197L609.914 375.356L605.348 376.681L602.576 378.338L598.336 377.344L595.726 377.841L590.997 380.822L583.496 384.135L579.093 383.473L582.354 379.828L588.388 374.031L595.074 370.552L596.868 367.571L598.336 362.601L604.532 356.804L606 350.178L607.794 356.638L613.991 358.129L617.904 354.651L615.621 346.7L614.154 343.387L607.631 341.399L601.434 340.24H595.074L589.53 338.914L588.877 336.595L586.594 338.086L584.638 337.755L587.736 334.276L584.801 332.951L587.899 328.976L585.942 325.994L588.714 323.013L580.235 321.522L580.072 315.559L578.767 314.233L573.385 313.902L566.699 311.914L564.253 313.24L561.318 315.724L555.937 317.381L550.881 321.522L542.075 318.706L534.9 320.031L528.54 316.884L521.039 315.227L515.658 314.565L514.027 312.908L515.495 307.276H512.722L510.602 311.252H493.969H466.247H438.85H414.553H390.418H366.446H341.822H333.995H310.023H287.03H285.888L277.082 301.147L274.473 296.675L263.058 292.368L265.178 283.258L271.049 277.129L264.363 272.657L269.418 264.54L265.993 257.252L270.07 251.951L278.387 247.148L283.605 240.853L276.104 234.559L278.387 223.129L280.181 216.172L277.571 211.7L276.267 207.724L277.245 202.589L266.646 205.736L254.252 211.203L253.763 204.908L252.947 200.601L248.381 197.951L241.532 197.62L299.586 143.454L339.702 109.663L349.487 111.816L354.868 116.123L360.902 116.951L371.175 113.307L382.59 110.491L391.233 111.485L405.747 107.675L419.119 105.522L419.445 109.166L426.783 107.013L433.143 102.871L436.567 103.865L438.85 111.816L454.342 105.687L447.982 112.479L457.767 110.988L462.985 108.503L470.487 109L476.846 112.644L489.077 115.957L496.741 117.448L503.916 116.951L508.646 121.589L494.784 126.062L505.221 127.884L524.627 126.89L531.802 125.233L534.085 130.7L545.663 126.227L542.239 122.252L549.577 119.27L558.057 118.773L564.416 117.945L567.841 120.098L570.287 124.902L578.441 124.24L587.084 128.381L598.825 126.89L608.609 127.055L612.523 121.424L619.861 119.933L627.852 122.914L620.84 131.528L630.95 124.24L636.168 124.571L646.605 115.46L643.996 109.994L639.267 106.35L648.236 96.5769L661.608 90.2825L668.946 91.7733L672.208 95.5831L672.86 105.522L663.402 109.828L674.328 111.651L667.152 120.761L681.666 113.804L685.253 119.601L678.241 126.227L680.361 132.356L692.266 125.896L702.865 117.945L710.53 108.172L719.499 108.835L728.305 110.16L734.175 114.632L731.403 119.105L723.086 123.908L724.554 128.712L720.64 133.184L702.865 139.644L692.266 141.135L687.047 138.319L681.666 142.957L669.598 150.743L664.706 154.884L652.15 161.178L641.55 161.841L633.233 165.816L628.504 172.111L619.209 173.27L605.022 181.055L589.693 191.822L581.539 199.442L573.549 210.871L583.333 212.528L580.887 221.638L579.582 229.258L591.487 227.27L602.902 231.577L608.283 235.387L611.055 240.025L619.046 242.841L624.917 246.982L637.31 247.644L645.137 248.638L639.267 257.252L636.495 267.356L636.658 278.786L643.833 288.559L651.497 285.246L660.629 274.644L664.38 258.743L661.608 253.442L676.284 248.638L688.515 241.681L696.342 234.724L699.115 228.098L698.462 219.651L693.244 212.197L707.757 201.927L709.388 193.147L715.748 178.24L721.945 175.921L732.871 178.571L739.72 179.565L747.058 176.914L752.113 180.227L757.984 185.859L758.31 189.503L770.867 190.332L766.627 198.448L762.876 210.706L769.073 212.362L771.682 218.16L785.054 212.694L797.284 201.761L804.133 197.289L805.927 206.068L810.167 218.491L813.429 230.417L807.884 236.712L815.712 242.344L820.441 247.976L831.693 250.626L835.606 253.773V262.387L841.151 263.712L842.945 267.522L839.683 278.951L832.671 282.761L825.822 286.405L811.472 290.049L798.589 298.332L784.565 300.154L768.094 297.835H756.19L747.547 298.497L738.252 305.951L726.185 310.589L709.714 324.172L696.832 333.779L704.496 332.123L722.271 318.375L742.329 309.761L754.722 308.767L760.104 313.902L750.156 320.859L749.178 331.957L749.341 339.908L758.473 345.043L772.497 343.552L784.239 331.792L782.608 339.411L786.685 343.221L774.617 350.013L754.396 356.307L744.938 360.448L733.197 368.068L727.163 367.24L729.609 358.46L746.569 349.681L733.36 350.013L723.739 351.338Z" fill="#F28705" stroke="#390096" stroke-width="0.2" stroke-linecap="round" stroke-linejoin="round"/>
<path d="M550.066 80.0124L542.402 83.9879L559.524 81.5032L563.764 85.8099L575.668 81.3376L578.604 84.1535L575.016 92.6014L582.028 89.1228L586.594 80.3437L593.606 79.0185L598.499 80.3437L602.086 83.8222L597.683 92.2701L593.77 98.3989L600.619 102.706L608.772 107.012L604.532 110.822L592.954 111.65L594.259 114.963L589.04 118.276L578.115 116.951L568.819 114.466L560.503 114.963L545.011 118.111L526.584 119.436L513.701 120.264L514.19 115.957L507.504 113.638L500.492 114.632L499.513 107.509L504.895 106.515L516.799 105.025L525.768 105.522L535.879 103.865L525.279 101.877L510.439 102.54L501.144 102.374V99.2271L520.224 95.5829L509.95 95.7486L501.144 93.4296L513.864 86.9695L522.344 83.4909L545.5 78.356L550.066 80.0124Z" fill="#F28705" stroke="#390096" stroke-width="0.2" stroke-linecap="round" stroke-linejoin="round"/>
<path d="M614.48 77.528L603.065 83.1599L599.314 77.1967L602.738 75.8716L611.707 75.5403L614.48 77.528Z" fill="#F28705" stroke="#390096" stroke-width="0.2" stroke-linecap="round" stroke-linejoin="round"/>
<path d="M791.577 80.178L790.435 82.4971L783.749 82.3314L777.063 82.1658L769.073 83.3253L767.605 82.6627L764.181 78.1903L766.953 75.2087L770.541 74.5461L784.239 75.54L791.577 80.178Z" fill="#F28705" stroke="#390096" stroke-width="0.2" stroke-linecap="round" stroke-linejoin="round"/>
<path d="M726.674 79.6811L727.163 84.9817L738.904 78.1903L757.984 74.7118L761.735 83.4909L756.516 89.1228L771.193 86.6382L779.836 83.1596L790.925 87.4664L796.958 91.6075L795.165 95.4173L808.536 93.4296L811.635 99.0615L825.333 102.54L828.921 106.019L830.388 114.466L815.549 118.607L828.105 124.571L837.727 126.558L843.108 134.841L853.708 135.503L848.326 141.963L830.551 152.73L824.028 148.755L817.832 139.81L808.21 140.969L804.46 146.436L808.863 151.736L816.201 156.043L817.832 158.528L817.669 167.969L811.798 174.761L804.134 172.111L790.109 164.657L795.98 172.773L800.546 178.571L800.057 181.884L782.282 178.074L769.888 172.442L763.691 167.969L767.605 165.153L759.778 160.35L752.113 155.877L750.646 158.528L729.283 160.019L725.369 156.871L734.175 149.914L747.384 149.749L762.55 148.589L762.224 145.276L767.279 140.638L781.629 131.693L782.282 127.552L781.466 124.571L773.802 120.098L762.224 117.117L767.931 114.798L764.67 109.166L759.125 108.669L756.027 105.687L750.646 108.338L737.763 109.497L714.933 107.509L702.865 104.859L693.244 103.534L690.146 100.387L700.419 96.4112H691.124L696.505 87.632L708.084 80.0124L717.868 76.5339L736.132 74.2148L726.674 79.6811Z" fill="#F28705" stroke="#390096" stroke-width="0.2" stroke-linecap="round" stroke-linejoin="round"/>
<path d="M644.485 73.8833L650.356 75.7054L662.749 74.5459L661.934 77.0305L651.987 81.1716L658.183 84.8158L649.704 92.6011L636.005 95.914L630.461 95.2514L628.993 91.9385L619.372 85.3127L622.144 82.4968L634.212 83.4907L632.744 78.0244L644.485 73.8833Z" fill="#F28705" stroke="#390096" stroke-width="0.2" stroke-linecap="round" stroke-linejoin="round"/>
<path d="M681.34 82.994L668.62 89.4541L661.445 89.1229L664.38 81.5032L668.62 77.3621L675.469 73.7179L683.949 71.3989L696.832 71.7302L706.942 73.7179L690.472 81.3376L681.34 82.994Z" fill="#F28705" stroke="#390096" stroke-width="0.2" stroke-linecap="round" stroke-linejoin="round"/>
<path d="M492.501 94.9206L470.487 99.2273L471.465 95.4175L461.681 90.7795L468.856 87.1353L481.086 80.8408L493.48 75.2089L494.132 70.0739L516.962 68.7488L523.811 70.5709L539.303 71.0678L542.402 73.3868L545.011 77.031L534.411 79.1844L511.744 85.1475L496.741 91.2764L492.501 94.9206Z" fill="#F28705" stroke="#390096" stroke-width="0.2" stroke-linecap="round" stroke-linejoin="round"/>
<path d="M696.669 64.4415L689.982 67.5887L681.503 66.9261L676.284 64.7728L683.623 61.1286L694.875 58.8096L697.158 61.7912L696.669 64.4415Z" fill="#F28705" stroke="#390096" stroke-width="0.2" stroke-linecap="round" stroke-linejoin="round"/>
<path d="M682.318 50.0308L682.644 53.8406L678.078 57.9817L668.62 64.2762L657.368 65.1044L652.15 63.7792L657.694 58.9755L646.931 59.4725L653.943 53.178L660.14 53.5093L672.697 50.6933L680.687 51.1903L682.318 50.0308Z" fill="#F28705" stroke="#390096" stroke-width="0.2" stroke-linecap="round" stroke-linejoin="round"/>
<path d="M618.067 54.3374L616.926 57.1533L624.101 55.8282L629.972 56.1595L626.221 60.3006L617.904 64.1104L595.237 65.4355L575.179 69.0797L565.395 69.2453L567.841 66.595L585.29 62.7852L556.1 63.7791L549.251 62.2883L568.33 54.3374L577.136 52.0184L590.671 54.8343L595.4 59.638L605.348 60.3006L606.489 52.5153L615.948 49.5337L621.003 50.3619L618.067 54.3374Z" fill="#F28705" stroke="#390096" stroke-width="0.2" stroke-linecap="round" stroke-linejoin="round"/>
<path d="M708.899 47.0489L712.65 49.6992H724.717L727 52.3495L722.434 55.3311L727.489 57.1532L729.446 59.141L737.437 59.4722L745.753 60.1348L757.332 58.4784L770.541 57.6502L779.999 58.3127L783.749 61.46L782.119 64.7729L776.248 67.0919L765.322 68.914L758.31 67.7545L739.067 69.0796L726.022 69.2453L716.89 68.2514L702.865 65.6011L705.474 60.963L708.899 56.9876L706.616 53.3434L695.201 52.3495L690.961 49.8649L697.158 46.552L708.899 47.0489Z" fill="#F28705" stroke="#390096" stroke-width="0.2" stroke-linecap="round" stroke-linejoin="round"/>
<path d="M585.453 42.7422L575.995 48.871L567.352 51.687L561.155 52.0183L545.011 55.4968L533.433 56.8219L527.562 54.9999L546.641 48.871L566.536 43.7361L575.505 43.9017L585.453 42.7422Z" fill="#F28705" stroke="#390096" stroke-width="0.2" stroke-linecap="round" stroke-linejoin="round"/>
<path d="M717.868 43.7364L714.933 43.902L704.17 43.4051L705.311 41.2517L717.053 41.4174L719.662 42.7425L717.868 43.7364Z" fill="#F28705" stroke="#390096" stroke-width="0.2" stroke-linecap="round" stroke-linejoin="round"/>
<path d="M711.019 39.4299L700.256 41.0863L697.647 39.2642L698.625 36.4483L702.213 33.301L709.388 33.6323L712.16 34.1292L715.911 36.7796L711.019 39.4299Z" fill="#F28705" stroke="#390096" stroke-width="0.2" stroke-linecap="round" stroke-linejoin="round"/>
<path d="M688.515 37.4418L686.721 40.589L678.078 39.7608L671.555 37.2761L658.836 36.9448L667.478 34.7915L662.912 32.9694L666.5 29.9878L676.447 30.9817L688.678 33.7976L688.515 37.4418Z" fill="#F28705" stroke="#390096" stroke-width="0.2" stroke-linecap="round" stroke-linejoin="round"/>
<path d="M776.737 27.3375L781.14 29.8222L770.541 31.9756L753.255 37.7731L742.166 38.27L731.077 37.2762L728.468 34.1289L731.892 31.4786L738.904 29.4909H728.142L724.88 27.0062L725.532 23.859L733.523 20.7118L740.209 18.5584L746.732 18.0615L746.243 16.405L759.778 16.0737L762.387 19.7179L770.051 21.2087L777.879 22.6995L776.737 27.3375Z" fill="#F28705" stroke="#390096" stroke-width="0.2" stroke-linecap="round" stroke-linejoin="round"/>
<path d="M905.891 4.1472L920.078 4.64413L931.004 5.47235L939.484 7.12879L937.69 8.78523L921.709 11.6012L907.033 12.9263L900.51 14.4171H912.74L895.617 18.5582L884.528 20.546L869.363 26.3435L856.154 27.503L851.098 29.1595L832.671 29.822L839.846 30.8159L834.465 32.1411L835.607 35.9509L827.453 38.6012L816.201 40.7546L810.493 43.7361L799.731 46.2208L798.915 48.0429L809.515 47.7116L807.721 49.6993L787.011 54.503L773.15 52.184L754.07 53.5092L745.917 52.5153L734.828 52.0184L738.252 48.2085L751.298 46.3865L754.559 40.7546L758.799 40.2576L771.03 43.5705L768.257 38.6012L760.267 37.1104L768.421 34.1288L780.814 32.3067L785.38 29.6564L780.488 26.8404L782.282 23.1963L797.611 23.3619L801.198 24.1901L813.103 21.5398L801.198 20.7116L780.651 21.2085L773.476 18.8895L772.171 16.0736L768.094 14.0858L769.888 11.9325L779.673 10.6073L786.522 10.4417L798.589 9.44781L809.678 6.96315L816.038 7.29444L819.952 9.11652L828.105 5.80364L836.585 4.80977L847.185 4.1472L864.144 3.81591L866.264 4.47848L883.061 3.48462L894.476 3.81591L905.891 4.1472Z" fill="#F28705" stroke="#390096" stroke-width="0.2" stroke-linecap="round" stroke-linejoin="round"/>
<path d="M1132.73 1.66258L1165.18 6.6319L1154.25 8.95092L1133.05 9.28221L1102.88 9.94479L1105.17 11.1043L1125.22 10.2761L1141.04 12.5951L1152.46 10.6074L1156.37 12.9264L1149.03 16.9018L1164.04 14.2515L1191.92 11.7669L1208.23 13.092L1211 15.908L1186.87 20.7117L1183.28 22.3681L1164.69 23.6933L1177.9 24.0245L1169.91 29.3252L1164.04 34.1288L1162.08 42.7423L1168.11 48.0429L1158.49 48.2086L1147.89 50.8589L1158.16 55.1656L1158 62.1227L1151.15 62.9509L1157.84 70.0736L1143.65 70.7362L1150.17 74.0491L1147.56 77.0307L1138.27 78.3558L1129.3 78.5215L1136.15 84.1534L1135.33 88.1288L1123.43 84.4847L1119.52 86.8037L1127.67 88.9571L1135.17 94.2577L1136.15 101.38L1124.08 103.037L1119.68 99.5583L1112.83 94.589L1113.65 100.552L1104.84 105.19L1122.29 105.521L1131.26 106.018L1111.85 113.804L1091.96 120.926L1071.25 123.908L1063.75 124.074L1055.75 127.552L1043.52 137.16L1026.89 143.62L1022 144.117L1012.05 146.27L1001.29 148.589L993.461 154.221L991.178 160.847L985.633 167.141L971.609 174.761L972.098 182.215L966.228 190.166L959.542 199.607L948.942 200.27L940.788 192.319L926.112 192.153L920.894 186.853L919.589 177.577L911.762 165.65L910.62 159.521L913.066 151.074L907.032 142.626L912.414 135.834L909.315 132.521L920.731 121.92L932.472 118.442L936.712 114.798L941.278 107.84L932.309 110.988L928.069 112.313L921.383 113.472L914.534 110.656L916.98 104.528L921.872 99.8896L928.069 99.7239L940.462 102.209L931.819 96.5767L927.417 93.5951L920.241 94.7546L916.001 92.6012L927.417 84.6503L925.297 81.3374L923.503 75.5399L921.22 66.5951L915.349 63.4479L917.632 59.9693L904.423 55.1656L891.867 54.5031L875.396 54.8344L859.904 55.4969L854.849 52.8466L848.652 47.7117L866.59 45.227L878.984 44.8957L855.175 42.7423L844.576 39.5951L848.163 36.6135L873.766 32.9693L898.226 29.3252L902.793 26.6748L889.584 24.0245L897.085 21.2086L921.057 16.4049L929.863 15.7423L930.189 12.7607L944.865 10.9387L962.803 9.94479H979.763L984.329 11.9325L1001.61 8.28834L1013.19 10.773L1020.69 11.2699L1030.8 13.4233L1019.88 9.94479L1022.49 7.12883L1043.2 3.48466L1062.11 3.81595L1070.43 1.49693L1089.84 1L1132.73 1.66258Z" fill="#ECECEC" stroke="#390096" stroke-width="0.2" stroke-linecap="round" stroke-linejoin="round"/>
<path d="M550.882 321.521L540.934 324.834L533.27 328.975L525.768 333.448L524.953 334.938L534.248 332.785L537.673 336.264L545.174 333.779L553.165 330.3L561.97 326.822L556.915 332.288L560.992 333.613L565.069 337.589L573.386 335.27L581.702 334.442L582.191 337.423L584.638 337.754L586.594 338.086L589.041 342.227L581.376 343.221H581.213L575.179 342.061L567.841 344.049L561.807 345.043L554.143 351.834L549.251 355.644L549.903 356.803L558.872 350.012H560.014L552.349 358.129L547.62 365.417L543.543 371.38L542.565 376.515L541.26 379L540.282 381.816L540.445 387.282L540.934 388.11L543.869 387.945L546.479 386.785L548.762 385.46L554.143 380.325L557.078 373.368L556.915 366.908L559.198 362.435L563.438 357.3L566.863 353.656L571.266 351.172L570.613 354.65L574.201 349.515L576.321 348.521L579.093 344.546L585.29 346.699L589.856 350.675L588.551 355.478L585.942 360.282L579.745 364.423L579.093 367.073H580.724L587.736 362.601L590.345 363.595L589.53 369.724L588.388 374.03L582.355 379.828L579.093 383.472L574.69 387.448L579.093 389.601L583.17 390.264L589.693 388.773L595.727 385.957L600.619 384.466L608.12 381.484L617.578 375.19L617.741 374.196L618.231 371.049L622.634 369.724L628.993 370.221L635.516 371.049L643.018 367.57L643.996 363.429L643.67 361.938L654.759 354.65L659.162 352.828L671.882 352.662H687.047L688.841 350.178L691.613 349.681L695.69 348.024L700.256 343.221L705.474 335.104L714.444 327.319L716.237 329.969L722.271 328.313L724.88 331.294L720.151 345.374L723.739 351.337L724.065 354.816L713.628 359.785L703.844 363.429L694.059 366.576L687.536 372.871L685.417 375.19L683.46 380.822L684.601 386.288L688.026 386.619L688.352 382.81L690.146 385.129L688.515 388.11L682.318 389.767L678.241 389.601L671.392 391.423L667.642 391.92L662.586 392.417L654.433 395.564L667.642 393.576L669.435 395.564L656.553 398.711H651.171L651.824 397.386L648.399 400.368L650.682 400.865L646.605 408.484L637.962 416.601L638.125 413.785L636.332 413.288L634.375 410.638V416.435L636.005 418.257L635.027 422.233L631.113 426.374L623.775 434.822L623.123 434.491L627.852 427.202L624.59 423.227L626.221 414.282L623.123 418.92V425.711L617.904 424.055L622.797 427.368L620.35 437.472L622.634 438.3V441.945L621.003 452.546L613.501 460.331L603.554 463.478L596.379 469.773L591.813 470.435L586.268 474.411L584.148 477.889L572.896 484.846L566.7 489.981L560.992 496.276L557.894 503.73V511.184L558.872 520.294L561.318 527.748L560.503 532.386L562.623 544.644L560.992 551.932L560.014 556.073L556.752 562.534L553.817 563.859L549.577 562.534L548.925 557.896L545.989 555.411L542.728 546.3L540.119 538.184L539.466 534.043L542.728 526.92L541.423 521.122L536.368 512.178L533.27 510.521L523.322 515.491L521.855 514.828L518.593 509.859L513.701 507.208L503.264 508.699L495.763 507.374L488.751 508.202L484.674 509.859L485.652 512.675L484.511 516.981L485.815 519.135L483.859 520.46L480.923 518.969L477.173 520.957L470.813 520.626L465.431 514.994L457.441 516.319L451.57 513.834L445.863 514.662L437.709 517.147L427.762 524.932L417.814 529.57L411.78 534.54L408.682 539.343L407.051 546.797L406.399 551.767L407.377 555.411L403.79 555.742L397.919 553.423L391.559 550.11L390.092 545.141L389.766 537.687L385.852 531.724L384.384 525.429L381.775 518.141L376.557 513.834L369.218 514.165L361.391 522.448L354.868 519.3L351.117 516.153L350.465 510.19L349.16 504.724L345.247 500.086L341.822 496.607L339.702 492.797H324.373L323.069 497.27H316.057H298.445L280.67 489.816L269.255 484.681L270.722 482.527L259.144 483.687L248.871 484.515L249.36 479.215L245.935 473.086L242.348 471.761L242.511 468.779L237.782 468.116L235.825 465.3L227.997 464.307L226.53 462.484L227.834 456.687L223.757 446.086L222.942 431.343L224.41 428.859L222.29 425.38L219.844 416.435L222.779 407.822L221.311 402.024L227.671 393.245L232.237 384.3L234.031 376.184L243 366.245L249.523 356.803L256.046 347.362L263.058 333.282L265.993 324.503L266.646 319.699L268.929 317.546L278.387 321.19L276.756 330.963L280.344 328.147L284.421 319.699L287.03 311.251H310.023H333.995H341.822H366.446H390.418H414.553H438.85H466.247H493.969H510.603L512.722 307.276H515.495L514.027 312.908L515.658 314.564L521.039 315.227L528.541 316.883L534.9 320.03L542.076 318.705L550.882 321.521Z" fill="#F28705" stroke="#390096" stroke-width="0.2" stroke-linecap="round" stroke-linejoin="round"/>
<path d="M403.79 555.742L407.377 555.411L402.159 564.853L399.224 572.472L396.288 586.718L394.495 591.853L395.147 597.65L397.267 602.951L397.919 611.067L402.811 619.018L404.116 625.147L406.888 630.282L416.183 633.098L419.282 637.57L427.761 634.589L434.774 633.595L441.949 631.607L447.819 629.785L454.179 625.478L457.115 619.35L459.071 610.405L461.028 607.258L467.551 604.442L477.499 601.957L485.489 602.454L491.034 601.46L492.991 603.779L492.012 608.914L486.305 615.209L483.369 621.669L484.837 623.491L482.88 628.129L479.456 636.411L477.499 633.595L475.705 633.761L473.911 633.926L469.834 640.386L468.367 639.061L467.225 639.558L467.062 641.215L458.582 641.049H450.102L449.287 647.012L445.21 647.178L448.146 650.656L451.244 653.141L452.059 655.46L453.364 656.123L452.712 659.767H440.97L435.589 668.38L436.73 670.368L435.426 672.853L434.774 676L425.642 664.57L421.402 661.092L414.226 658.276L409.008 659.104L401.181 663.08L396.451 664.074L390.418 661.258L383.732 659.27L375.904 654.466L369.218 652.975L359.597 648.006L352.585 642.871L350.791 640.055L345.736 639.393L336.93 636.08L333.832 631.276L325.026 625.147L321.438 618.521L320.133 613.221L323.232 612.227L322.743 609.245L325.352 606.429L326.004 602.785L323.558 597.982V593.84L321.438 588.374L315.241 577.773L307.74 569.491L304.642 562.865L297.956 558.558L296.814 555.908L299.586 549.448L295.673 546.963L291.596 541.663L291.27 534.374L286.704 533.38L282.953 527.914L280.181 522.613L280.67 519.301L278.224 511.35L277.735 503.233L279.039 499.092L273.984 494.785L270.885 495.282L266.972 492.466L264.036 496.773L263.873 501.742L262.243 509.859L263.873 514.166L268.439 521.454L269.092 524.104L270.233 524.767L270.396 528.411L272.027 528.245V535.202L274.147 537.853L274.962 541.663L279.365 546.963L280.018 556.902L281.648 561.54L283.116 566.509L282.627 572.141L286.867 572.472L289.476 577.276L291.922 582.08L291.433 584.067L286.867 587.877H285.236L284.094 581.417L279.365 575.288L273.821 570.153L269.744 567.503L271.701 559.718L271.538 553.92L268.113 550.607L263.058 545.969L261.59 547.294L259.96 544.478L255.067 541.994L251.48 535.699L252.295 535.037L255.72 535.534L260.123 531.558L261.753 526.755L257.024 519.135L252.784 516.319L251.48 509.693L250.501 502.57L249.197 494.123L248.871 484.515L259.144 483.687L270.722 482.528L269.255 484.681L280.67 489.816L298.445 497.27H316.057H323.069L324.373 492.797H339.702L341.822 496.607L345.247 500.086L349.16 504.724L350.465 510.19L351.117 516.153L354.868 519.301L361.391 522.448L369.218 514.166L376.557 513.834L381.775 518.141L384.384 525.429L385.852 531.724L389.766 537.687L390.092 545.141L391.559 550.11L397.919 553.423L403.79 555.742Z" fill="#ECECEC" stroke="#390096" stroke-width="0.2" stroke-linecap="round" stroke-linejoin="round"/>
<path d="M119.554 228.927L108.139 232.737L106.834 230.086L110.585 225.448L121.022 221.97L126.729 220.479L130.969 221.142V224.289L119.554 228.927Z" fill="#F28705" stroke="#390096" stroke-width="0.2" stroke-linecap="round" stroke-linejoin="round"/>
<path d="M55.9555 201.43L49.5957 202.921L46.8234 201.099L45.5189 198.448L54.814 196.792L59.7062 197.786L55.9555 201.43Z" fill="#F28705" stroke="#390096" stroke-width="0.2" stroke-linecap="round" stroke-linejoin="round"/>
<path d="M57.9124 164.325L59.8693 165.982L65.5768 165.153L68.186 167.638L73.5674 168.798L71.6105 169.957L63.62 171.945L60.8477 169.791L60.3585 168.135L53.3464 168.632L52.8572 167.804L57.9124 164.325Z" fill="#F28705" stroke="#390096" stroke-width="0.2" stroke-linecap="round" stroke-linejoin="round"/>
<path d="M339.702 109.663L299.586 143.454L241.532 197.62L248.381 197.951L252.947 200.601L253.763 204.908L254.252 211.202L266.646 205.736L277.245 202.589L276.267 207.724L277.571 211.699L280.181 216.172L278.387 223.129L276.104 234.558L283.605 240.853L278.387 247.147L270.07 251.951L269.092 248.307L265.015 244.994L270.396 236.38L267.787 228.264L272.19 218.988L265.504 218.325L253.926 218.159L247.729 215.178L242.348 205.074L236.966 203.251L227.671 199.773L216.582 200.601L206.798 196.129L202.395 191.988L192.121 193.975L186.414 200.767L181.685 201.429L170.922 203.417L160.811 206.73L150.375 208.883L155.593 203.086L169.291 193.478L180.38 190.497L181.032 188.178L165.703 193.478L153.636 199.939L135.372 206.896L135.698 211.699L121.022 218.656L108.465 222.797L97.7022 225.945L91.1793 230.251L73.8935 235.386L66.5553 240.024L53.1833 244.331L48.7803 243.669L38.6698 246.319L27.2547 249.797L17.3073 253.11L1 256.092L1.65228 254.27L15.0242 249.632L25.7871 246.485L39.8113 241.018L50.4111 240.024L58.5647 235.883L75.5243 229.92L79.2749 227.932L88.5701 224.454L98.0283 217L108.139 211.202L96.2345 214.184L95.7453 212.362L87.7547 216.006L88.407 211.037L82.5364 214.515L85.1455 209.712L73.2412 213.521H68.6752L74.7089 207.724L80.0903 204.08L79.438 200.601L67.6968 202.589L66.7183 197.951L64.5984 195.632L71.1213 190.166L70.469 186.024L80.0903 180.558L92.6469 175.092L101.29 170.288L107.976 169.626L110.911 171.116L122.489 166.478L126.566 167.307L135.698 164.325L139.775 160.018L137.981 158.362L147.765 154.718L143.199 154.883L133.089 156.871L128.36 159.024L125.425 156.871L114.173 158.031L106.671 155.712L108.628 151.902L106.997 146.601L122 142.626L143.526 138.153H149.233L142.221 142.791L157.224 142.46L159.181 136.663L155.43 133.184L156.734 128.546L155.593 124.736L150.212 121.92L160.811 117.116L173.042 116.785L187.392 112.81L195.22 108.503L208.102 104.196L215.93 103.202L234.194 99.2269L239.249 99.8895L256.209 95.2515L263.384 97.0735L262.569 101.049L267.95 99.3926L278.224 99.8895L275.125 101.877L283.116 103.368L291.107 102.54L301.217 105.19L312.958 106.184L316.546 107.178L327.309 105.853L333.995 108.503L339.702 109.663Z" fill="#F28705" stroke="#390096" stroke-width="0.2" stroke-linecap="round" stroke-linejoin="round"/>
<path d="M248.312 338.625V444.375" stroke="black" stroke-width="5" stroke-linecap="round" stroke-linejoin="round"/>
<path d="M248.312 347.438H289.438L310 356.25H330.562C333.807 356.25 336.438 358.88 336.438 362.125V412.062C336.438 415.307 333.807 417.938 330.562 417.938H310L289.438 409.125H248.312V347.438Z" fill="#03A696" stroke="black" stroke-width="5" stroke-linejoin="round"/>
<path d="M236.562 444.375H260.063" stroke="black" stroke-width="5" stroke-linecap="round" stroke-linejoin="round"/>
<path d="M471.312 103.625V209.375" stroke="black" stroke-width="5" stroke-linecap="round" stroke-linejoin="round"/>
<path d="M471.312 112.438H512.438L533 121.25H553.562C556.807 121.25 559.438 123.88 559.438 127.125V177.062C559.438 180.307 556.807 182.938 553.562 182.938H533L512.438 174.125H471.312V112.438Z" fill="#03A696" stroke="black" stroke-width="5" stroke-linejoin="round"/>
<path d="M459.562 209.375H483.063" stroke="black" stroke-width="5" stroke-linecap="round" stroke-linejoin="round"/>
<path d="M196.312 46.6255V152.375" stroke="black" stroke-width="5" stroke-linecap="round" stroke-linejoin="round"/>
<path d="M196.312 55.4375H237.438L258 64.25H278.562C281.807 64.25 284.438 66.8802 284.438 70.125V120.062C284.438 123.307 281.807 125.938 278.562 125.938H258L237.438 117.125H196.312V55.4375Z" fill="#03A696" stroke="black" stroke-width="5" stroke-linejoin="round"/>
<path d="M184.562 152.375H208.063" stroke="black" stroke-width="5" stroke-linecap="round" stroke-linejoin="round"/>
<path d="M661.312 244.625V350.375" stroke="black" stroke-width="5" stroke-linecap="round" stroke-linejoin="round"/>
<path d="M661.312 253.438H702.438L723 262.25H743.562C746.807 262.25 749.438 264.88 749.438 268.125V318.062C749.438 321.307 746.807 323.938 743.562 323.938H723L702.438 315.125H661.312V253.438Z" fill="#03A696" stroke="black" stroke-width="5" stroke-linejoin="round"/>
<path d="M649.562 350.375H673.063" stroke="black" stroke-width="5" stroke-linecap="round" stroke-linejoin="round"/>
</svg>
